<svg width="38" height="61" viewBox="0 0 38 61" fill="none" xmlns="http://www.w3.org/2000/svg">
<path d="M36.253 8.93268L35.0494 12.0234C34.2491 10.9267 33.1274 10.041 31.7536 9.51994L26.2231 7.4219C24.8493 6.90087 23.4154 6.817 22.0768 7.10235L23.2805 4.01175C24.2229 1.59166 26.9754 0.383565 29.4276 1.31381L33.5194 2.86598C35.9715 3.79606 37.1956 6.51259 36.253 8.93268Z" stroke="#2B2B2A" stroke-width="0.930341" stroke-miterlimit="10"/>
<path d="M28.6301 42.3023L23.929 54.3735C22.1683 58.8943 17.0268 61.1521 12.4445 59.414L6.7012 57.2353C2.11897 55.4971 -0.166683 50.4219 1.59404 45.901L6.29512 33.8299C7.55846 30.586 10.5597 28.5085 13.847 28.2345L15.125 24.9529C15.2646 24.5941 15.4447 24.2626 15.6569 23.9616C14.4328 22.3615 13.912 20.287 14.3175 18.2449C14.3236 18.2135 14.3306 18.1821 14.3371 18.1506C14.3548 18.0673 14.3725 17.9842 14.3934 17.9011C14.423 17.7809 14.4555 17.6608 14.4919 17.5411C14.5088 17.489 14.5262 17.4354 14.5431 17.3832C14.5463 17.371 14.5514 17.3579 14.556 17.3462C14.5723 17.2956 14.5886 17.2448 14.6079 17.1953C14.6297 17.1349 14.6509 17.076 14.6742 17.0163L16.8 11.558C16.8226 11.4997 16.8462 11.4433 16.8704 11.3857C16.8796 11.3623 16.8892 11.3376 16.9013 11.3153C17.8622 9.10477 19.8302 7.59914 22.0682 7.1245L22.0768 7.10263C23.4153 6.81728 24.8492 6.90115 26.223 7.42219L31.7535 9.52023C33.1273 10.0413 34.249 10.927 35.0493 12.0237L35.0408 12.0456C36.3805 13.8773 36.8203 16.2963 36.0336 18.573C36.026 18.5969 36.0178 18.6222 36.0088 18.6455C35.9876 18.7044 35.9669 18.7619 35.9442 18.8201L33.8184 24.2785C33.7951 24.3382 33.7709 24.3959 33.7462 24.4551C33.7269 24.5048 33.7046 24.5532 33.6823 24.6016C33.6779 24.6134 33.6726 24.6265 33.6666 24.6376C33.6438 24.6874 33.6204 24.7388 33.5976 24.7888C33.5434 24.9017 33.4861 25.0121 33.4266 25.1211C33.3856 25.1966 33.3422 25.27 33.2989 25.3435C33.2826 25.3712 33.2663 25.3991 33.2495 25.4266C32.1647 27.211 30.3702 28.4071 28.3754 28.7862C28.3286 29.1499 28.2373 29.5152 28.0975 29.8738L26.8195 33.1554C29.0746 35.532 29.8934 39.0585 28.6301 42.3023Z" fill="#F6BAD6"/>
<path d="M28.6301 42.3023L23.929 54.3735C22.1683 58.8943 17.0268 61.1521 12.4445 59.414L6.7012 57.2353C2.11897 55.4971 -0.166683 50.4219 1.59404 45.901L6.29512 33.8299C7.55846 30.586 10.5597 28.5085 13.847 28.2345L15.125 24.9529C15.2646 24.5941 15.4447 24.2626 15.6569 23.9616C14.4328 22.3615 13.912 20.287 14.3175 18.2449C14.3236 18.2135 14.3306 18.1821 14.3371 18.1506C14.3548 18.0673 14.3725 17.9842 14.3934 17.9011C14.423 17.7809 14.4555 17.6608 14.4919 17.5411C14.5088 17.489 14.5262 17.4354 14.5431 17.3832C14.5463 17.371 14.5514 17.3579 14.556 17.3462C14.5723 17.2956 14.5886 17.2448 14.6079 17.1953C14.6297 17.1349 14.6509 17.076 14.6742 17.0163L16.8 11.558C16.8226 11.4997 16.8462 11.4433 16.8704 11.3857C16.8796 11.3623 16.8892 11.3376 16.9013 11.3153C17.8622 9.10477 19.8302 7.59915 22.0682 7.1245L22.0768 7.10263C23.4153 6.81728 24.8492 6.90115 26.223 7.42219L31.7535 9.52023C33.1273 10.0413 34.249 10.927 35.0493 12.0237L35.0408 12.0456C36.3805 13.8773 36.8203 16.2963 36.0336 18.573C36.026 18.5969 36.0178 18.6222 36.0088 18.6455C35.9876 18.7044 35.9669 18.7619 35.9442 18.8201L33.8184 24.2785C33.7951 24.3382 33.7709 24.3959 33.7462 24.4551C33.7269 24.5048 33.7046 24.5532 33.6823 24.6016C33.6779 24.6134 33.6727 24.6265 33.6666 24.6376C33.6438 24.6874 33.6204 24.7388 33.5976 24.7888C33.5434 24.9017 33.4861 25.0121 33.4266 25.1211C33.3856 25.1966 33.3422 25.27 33.2989 25.3435C33.2826 25.3712 33.2663 25.3991 33.2495 25.4266C32.1647 27.211 30.3702 28.4071 28.3754 28.7862C28.3286 29.1499 28.2373 29.5152 28.0975 29.8738L26.8195 33.1554C29.0746 35.532 29.8934 39.0585 28.6301 42.3023Z" stroke="#2B2B2A" stroke-width="0.930341" stroke-miterlimit="10"/>
<path d="M7.71056 34.5572L3.30131 45.8791C1.65025 50.1186 3.53251 54.7798 7.50768 56.2877L12.4887 58.1771C16.4637 59.6851 21.0249 57.468 22.676 53.2285L27.0852 41.9068C28.2702 38.8642 27.6374 35.6089 25.7168 33.4531L26.9154 30.3755C26.9686 30.2084 27.023 30.0381 27.0809 29.8677C27.3614 29.0388 27.6728 28.2651 28.0034 27.5471C28.2349 27.5313 28.5622 27.4964 28.9496 27.4158C29.424 27.3164 29.9756 27.1976 30.5891 26.8413C31.3405 26.4052 31.6504 25.9272 31.7005 25.8374C31.7181 25.8055 31.8132 25.6224 31.8581 25.524C31.88 25.477 31.9001 25.4296 31.9218 25.3825C31.9278 25.3715 31.9324 25.3597 31.9369 25.348C31.958 25.3026 31.9786 25.2585 31.9968 25.2118C32.0189 25.155 32.0414 25.1016 32.0636 25.0447L33.3421 21.7615C32.6102 20.0583 30.3766 16.7213 24.0455 16.5267C20.7298 16.4252 18.5707 15.4738 17.1689 14.3498L15.4571 18.7453C15.4349 18.8021 15.4154 18.8566 15.3933 18.9135C15.3751 18.9602 15.3605 19.0064 15.3452 19.0542C15.3408 19.0659 15.3362 19.0775 15.3332 19.0898C15.3173 19.139 15.3001 19.1878 15.2843 19.237C15.251 19.3397 15.1974 19.5386 15.1887 19.5739C15.1651 19.6737 15.0708 20.2336 15.3327 21.054C15.5465 21.7241 15.8755 22.1768 16.1602 22.5643C16.3933 22.8803 16.6126 23.1224 16.7739 23.2873C16.5319 24.0389 16.2382 24.8193 15.8839 25.6203C15.8112 25.7852 15.7362 25.9475 15.6623 26.1068L14.4637 29.1844C11.5745 29.5157 8.89557 31.5145 7.71056 34.5572Z" fill="#E72A5C"/>
<path d="M20.874 18.8979C20.6106 19.5741 19.8415 19.9118 19.1563 19.6518C18.4709 19.3919 18.1289 18.6328 18.3922 17.9565C18.6557 17.2801 19.4248 16.9426 20.1101 17.2026C20.7953 17.4625 21.1373 18.2216 20.874 18.8979Z" fill="white"/>
<path d="M15.3637 55.1963C15.1004 55.8726 14.3313 56.2101 13.6461 55.9502C12.9607 55.6903 12.6187 54.9312 12.882 54.2549C13.1455 53.5785 13.9146 53.241 14.5998 53.501C15.2851 53.7609 15.6271 54.52 15.3637 55.1963Z" fill="white"/>
<path d="M22.2019 21.7306C22.0156 22.2088 21.4719 22.4475 20.9873 22.2637C20.5027 22.0798 20.2609 21.5432 20.447 21.0649C20.6333 20.5867 21.1772 20.348 21.6618 20.5319C22.1463 20.7157 22.3881 21.2524 22.2019 21.7306Z" fill="white"/>
<path d="M13.9952 50.3527C13.8089 50.8309 13.2652 51.0696 12.7806 50.8857C12.296 50.7019 12.0542 50.1652 12.2403 49.687C12.4266 49.2088 12.9705 48.9701 13.4551 49.1539C13.9396 49.3378 14.1814 49.8744 13.9952 50.3527Z" fill="white"/>
<path d="M17.2139 48.6168C17.0548 49.0251 16.5907 49.2287 16.1772 49.0718C15.7635 48.915 15.5571 48.4569 15.716 48.0486C15.875 47.6405 16.3392 47.4367 16.7529 47.5936C17.1664 47.7505 17.3729 48.2085 17.2139 48.6168Z" fill="white"/>
</svg>
